<svg width="22" height="13" viewBox="0 0 22 13" fill="none" xmlns="http://www.w3.org/2000/svg">
<path fill-rule="evenodd" clip-rule="evenodd" d="M7.22571 0.300601C7.62652 0.701402 7.62652 1.35123 7.22571 1.75203L3.50406 5.47368H20.1842C20.751 5.47368 21.2105 5.93318 21.2105 6.5C21.2105 7.06682 20.751 7.52632 20.1842 7.52632H3.50406L7.22571 11.248C7.62652 11.6488 7.62652 12.2986 7.22571 12.6994C6.82491 13.1002 6.17509 13.1002 5.77429 12.6994L0.301009 7.22612M0.300805 5.77408L5.77428 0.300601C6.17509 -0.1002 6.82491 -0.1002 7.22571 0.300601M0.300805 5.77408L0.300601 5.77429C0.202201 5.87268 0.12796 5.98609 0.0778756 6.10714C0.0276957 6.22815 0 6.36084 0 6.5C0 6.63916 0.0276958 6.77185 0.0778757 6.89286C0.12759 7.01301 0.201108 7.12564 0.298428 7.22354" fill="black"/>
</svg>
