<svg width="25" height="14" viewBox="0 0 25 14" fill="none" xmlns="http://www.w3.org/2000/svg">
<path fill-rule="evenodd" clip-rule="evenodd" d="M22.6667 4.33333H2.66667C1.74667 4.33333 1 3.58333 1 2.66667C1 1.75 1.74667 1 2.66667 1H22.6667C23.5867 1 24.3333 1.75 24.3333 2.66667C24.3333 3.58333 23.5867 4.33333 22.6667 4.33333ZM1 11C1 10.0833 1.74667 9.33333 2.66667 9.33333H16C16.92 9.33333 17.6667 10.0833 17.6667 11C17.6667 11.9167 16.92 12.6667 16 12.6667H2.66667C1.74667 12.6667 1 11.9167 1 11Z" fill="black"/>
<path d="M22.6667 3.93333H2.66667V4.73333H22.6667V3.93333ZM2.66667 3.93333C1.9681 3.93333 1.4 3.36294 1.4 2.66667H0.6C0.6 3.80373 1.52523 4.73333 2.66667 4.73333V3.93333ZM1.4 2.66667C1.4 1.97039 1.9681 1.4 2.66667 1.4V0.6C1.52523 0.6 0.6 1.52961 0.6 2.66667H1.4ZM2.66667 1.4H22.6667V0.6H2.66667V1.4ZM22.6667 1.4C23.3652 1.4 23.9333 1.97039 23.9333 2.66667H24.7333C24.7333 1.52961 23.8081 0.6 22.6667 0.6V1.4ZM23.9333 2.66667C23.9333 3.36294 23.3652 3.93333 22.6667 3.93333V4.73333C23.8081 4.73333 24.7333 3.80373 24.7333 2.66667H23.9333ZM1.4 11C1.4 10.3037 1.9681 9.73333 2.66667 9.73333V8.93333C1.52523 8.93333 0.6 9.86294 0.6 11H1.4ZM2.66667 9.73333H16V8.93333H2.66667V9.73333ZM16 9.73333C16.6986 9.73333 17.2667 10.3037 17.2667 11H18.0667C18.0667 9.86294 17.1414 8.93333 16 8.93333V9.73333ZM17.2667 11C17.2667 11.6963 16.6986 12.2667 16 12.2667V13.0667C17.1414 13.0667 18.0667 12.1371 18.0667 11H17.2667ZM16 12.2667H2.66667V13.0667H16V12.2667ZM2.66667 12.2667C1.9681 12.2667 1.4 11.6963 1.4 11H0.6C0.6 12.1371 1.52523 13.0667 2.66667 13.0667V12.2667Z" fill="white"/>
</svg>
