<svg width="20" height="22" viewBox="0 0 20 22" fill="none" xmlns="http://www.w3.org/2000/svg">
<path fill-rule="evenodd" clip-rule="evenodd" d="M9.95915 2.66667C8.57832 2.66667 7.45915 3.78333 7.45915 5.16667H12.4592C12.4592 3.78333 11.34 2.66667 9.95915 2.66667ZM12.4592 6.83333V7.66667C12.4592 8.125 12.8325 8.5 13.2925 8.5C13.7525 8.5 14.1258 8.125 14.1258 7.66667V6.83333H15.1442C15.5667 6.83333 15.9217 7.15 15.9717 7.56667L17.2458 18.4C17.3042 18.9 16.9175 19.3333 16.4183 19.3333H3.49999C3.00082 19.3333 2.61415 18.9 2.67249 18.4L3.94665 7.56667C3.99665 7.15 4.35165 6.83333 4.77415 6.83333H5.79249V7.66667C5.79249 8.125 6.16582 8.5 6.62582 8.5C7.08582 8.5 7.45915 8.125 7.45915 7.66667V6.83333H12.4592ZM5.79249 5.16667H4.77415C3.50665 5.16667 2.43999 6.11667 2.29165 7.375L1.01749 18.2083C0.842486 19.6917 2.00332 21 3.49999 21H16.4183C17.915 21 19.0758 19.6917 18.9008 18.2083L17.6267 7.375C17.4783 6.11667 16.4117 5.16667 15.1442 5.16667H14.1258C14.1258 2.86667 12.26 1 9.95915 1C7.65749 1 5.79249 2.86667 5.79249 5.16667Z" fill="black"/>
<path d="M7.45915 5.16667H7.30915V5.31667H7.45915V5.16667ZM12.4592 5.16667V5.31667H12.6092V5.16667H12.4592ZM12.4592 6.83333H12.6092V6.68333H12.4592V6.83333ZM14.1258 6.83333V6.68333H13.9758V6.83333H14.1258ZM15.9717 7.56667L16.1206 7.54915L16.1206 7.5488L15.9717 7.56667ZM17.2458 18.4L17.3948 18.3826L17.3948 18.3825L17.2458 18.4ZM2.67249 18.4L2.52351 18.3825L2.5235 18.3826L2.67249 18.4ZM3.94665 7.56667L3.79772 7.5488L3.79768 7.54915L3.94665 7.56667ZM5.79249 6.83333H5.94249V6.68333H5.79249V6.83333ZM7.45915 6.83333V6.68333H7.30915V6.83333H7.45915ZM2.29165 7.375L2.14268 7.35744L2.14268 7.35748L2.29165 7.375ZM1.01749 18.2083L1.16645 18.2259L1.16646 18.2259L1.01749 18.2083ZM18.9008 18.2083L18.7518 18.2259L18.7519 18.2259L18.9008 18.2083ZM17.6267 7.375L17.7756 7.35748L17.7756 7.35744L17.6267 7.375ZM14.1258 5.16667H13.9758V5.31667H14.1258V5.16667ZM9.95915 2.51667C8.49557 2.51667 7.30915 3.70039 7.30915 5.16667H7.60915C7.60915 3.86627 8.66106 2.81667 9.95915 2.81667V2.51667ZM7.45915 5.31667H12.4592V5.01667H7.45915V5.31667ZM12.6092 5.16667C12.6092 3.70039 11.4227 2.51667 9.95915 2.51667V2.81667C11.2572 2.81667 12.3092 3.86627 12.3092 5.16667H12.6092ZM12.3092 6.83333V7.66667H12.6092V6.83333H12.3092ZM12.3092 7.66667C12.3092 8.20765 12.7494 8.65 13.2925 8.65V8.35C12.9155 8.35 12.6092 8.04235 12.6092 7.66667H12.3092ZM13.2925 8.65C13.8355 8.65 14.2758 8.20765 14.2758 7.66667H13.9758C13.9758 8.04235 13.6694 8.35 13.2925 8.35V8.65ZM14.2758 7.66667V6.83333H13.9758V7.66667H14.2758ZM14.1258 6.98333H15.1442V6.68333H14.1258V6.98333ZM15.1442 6.98333C15.4906 6.98333 15.7818 7.24315 15.8227 7.58454L16.1206 7.5488C16.0616 7.05685 15.6427 6.68333 15.1442 6.68333V6.98333ZM15.8227 7.58419L17.0968 18.4175L17.3948 18.3825L16.1206 7.54915L15.8227 7.58419ZM17.0968 18.4174C17.1448 18.8285 16.8275 19.1833 16.4183 19.1833V19.4833C17.0075 19.4833 17.4635 18.9715 17.3948 18.3826L17.0968 18.4174ZM16.4183 19.1833H3.49999V19.4833H16.4183V19.1833ZM3.49999 19.1833C3.09084 19.1833 2.77351 18.8285 2.82148 18.4174L2.5235 18.3826C2.4548 18.9715 2.9108 19.4833 3.49999 19.4833V19.1833ZM2.82146 18.4175L4.09563 7.58419L3.79768 7.54915L2.52351 18.3825L2.82146 18.4175ZM4.09558 7.58454C4.13655 7.24315 4.4277 6.98333 4.77415 6.98333V6.68333C4.27561 6.68333 3.85675 7.05685 3.79772 7.5488L4.09558 7.58454ZM4.77415 6.98333H5.79249V6.68333H4.77415V6.98333ZM5.64249 6.83333V7.66667H5.94249V6.83333H5.64249ZM5.64249 7.66667C5.64249 8.20765 6.08278 8.65 6.62582 8.65V8.35C6.24886 8.35 5.94249 8.04235 5.94249 7.66667H5.64249ZM6.62582 8.65C7.16886 8.65 7.60915 8.20765 7.60915 7.66667H7.30915C7.30915 8.04235 7.00278 8.35 6.62582 8.35V8.65ZM7.60915 7.66667V6.83333H7.30915V7.66667H7.60915ZM7.45915 6.98333H12.4592V6.68333H7.45915V6.98333ZM5.79249 5.01667H4.77415V5.31667H5.79249V5.01667ZM4.77415 5.01667C3.43048 5.01667 2.29991 6.0237 2.14268 7.35744L2.44062 7.39256C2.58007 6.20963 3.58283 5.31667 4.77415 5.31667V5.01667ZM2.14268 7.35748L0.868513 18.1908L1.16646 18.2259L2.44063 7.39252L2.14268 7.35748ZM0.868519 18.1908C0.683004 19.7632 1.91345 21.15 3.49999 21.15V20.85C2.09319 20.85 1.00197 19.6201 1.16645 18.2259L0.868519 18.1908ZM3.49999 21.15H16.4183V20.85H3.49999V21.15ZM16.4183 21.15C18.0049 21.15 19.2353 19.7632 19.0498 18.1908L18.7519 18.2259C18.9163 19.6201 17.8251 20.85 16.4183 20.85V21.15ZM19.0498 18.1908L17.7756 7.35748L17.4777 7.39252L18.7518 18.2259L19.0498 18.1908ZM17.7756 7.35744C17.6184 6.0237 16.4878 5.01667 15.1442 5.01667V5.31667C16.3355 5.31667 17.3382 6.20963 17.4777 7.39256L17.7756 7.35744ZM15.1442 5.01667H14.1258V5.31667H15.1442V5.01667ZM14.2758 5.16667C14.2758 2.78384 12.3428 0.85 9.95915 0.85V1.15C12.1771 1.15 13.9758 2.94949 13.9758 5.16667H14.2758ZM9.95915 0.85C7.5746 0.85 5.64249 2.78386 5.64249 5.16667H5.94249C5.94249 2.94947 7.74037 1.15 9.95915 1.15V0.85Z" fill="black"/>
</svg>
