<svg width="22" height="22" viewBox="0 0 22 22" fill="none" xmlns="http://www.w3.org/2000/svg">
<path fill-rule="evenodd" clip-rule="evenodd" d="M8.83784 16.6757C4.50912 16.6757 1 13.1666 1 8.83784C1 4.50912 4.50912 1 8.83784 1C13.1666 1 16.6757 4.50912 16.6757 8.83784C16.6757 10.7102 16.0192 12.4291 14.9238 13.7771L20.7625 19.6159C21.0792 19.9325 21.0792 20.4459 20.7625 20.7625C20.4459 21.0792 19.9325 21.0792 19.6159 20.7625L13.7771 14.9238C12.4291 16.0192 10.7102 16.6757 8.83784 16.6757ZM8.83784 15.0541C12.271 15.0541 15.0541 12.271 15.0541 8.83784C15.0541 5.40472 12.271 2.62162 8.83784 2.62162C5.40472 2.62162 2.62162 5.40472 2.62162 8.83784C2.62162 12.271 5.40472 15.0541 8.83784 15.0541Z" fill="black"/>
<path d="M14.9238 13.7771L14.747 13.9539L14.5876 13.7945L14.7298 13.6195L14.9238 13.7771ZM20.7625 19.6159L20.5857 19.7926H20.5857L20.7625 19.6159ZM20.7625 20.7625L20.9393 20.9393H20.9393L20.7625 20.7625ZM19.6159 20.7625L19.4391 20.9393H19.4391L19.6159 20.7625ZM13.7771 14.9238L13.6195 14.7298L13.7945 14.5876L13.9539 14.747L13.7771 14.9238ZM1.25 8.83784C1.25 13.0285 4.64719 16.4257 8.83784 16.4257V16.9257C4.37105 16.9257 0.75 13.3046 0.75 8.83784H1.25ZM8.83784 1.25C4.64719 1.25 1.25 4.64719 1.25 8.83784H0.75C0.75 4.37105 4.37105 0.75 8.83784 0.75V1.25ZM16.4257 8.83784C16.4257 4.64719 13.0285 1.25 8.83784 1.25V0.75C13.3046 0.75 16.9257 4.37105 16.9257 8.83784H16.4257ZM14.7298 13.6195C15.7903 12.3144 16.4257 10.6507 16.4257 8.83784H16.9257C16.9257 10.7696 16.2481 12.5439 15.1178 13.9348L14.7298 13.6195ZM15.1006 13.6004L20.9393 19.4391L20.5857 19.7926L14.747 13.9539L15.1006 13.6004ZM20.9393 19.4391C21.3536 19.8534 21.3536 20.525 20.9393 20.9393L20.5857 20.5857C20.8048 20.3667 20.8048 20.0116 20.5857 19.7926L20.9393 19.4391ZM20.9393 20.9393C20.525 21.3536 19.8534 21.3536 19.4391 20.9393L19.7926 20.5857C20.0116 20.8048 20.3667 20.8048 20.5857 20.5857L20.9393 20.9393ZM19.4391 20.9393L13.6004 15.1006L13.9539 14.747L19.7926 20.5857L19.4391 20.9393ZM8.83784 16.4257C10.6507 16.4257 12.3144 15.7903 13.6195 14.7298L13.9348 15.1178C12.5439 16.2481 10.7696 16.9257 8.83784 16.9257V16.4257ZM15.3041 8.83784C15.3041 12.409 12.409 15.3041 8.83784 15.3041V14.8041C12.1329 14.8041 14.8041 12.1329 14.8041 8.83784H15.3041ZM8.83784 2.37162C12.409 2.37162 15.3041 5.26665 15.3041 8.83784H14.8041C14.8041 5.54279 12.1329 2.87162 8.83784 2.87162V2.37162ZM2.37162 8.83784C2.37162 5.26665 5.26665 2.37162 8.83784 2.37162V2.87162C5.54279 2.87162 2.87162 5.54279 2.87162 8.83784H2.37162ZM8.83784 15.3041C5.26665 15.3041 2.37162 12.409 2.37162 8.83784H2.87162C2.87162 12.1329 5.54279 14.8041 8.83784 14.8041V15.3041Z" fill="black"/>
</svg>
